<!-- icon666.com - MILLIONS OF FREE VECTOR ICONS --><svg viewBox="0 -50 512 512" xmlns="http://www.w3.org/2000/svg"><path d="m488.050781 404.941406h-464.101562c-9.085938 0-16.449219-7.367187-16.449219-16.449218v-364.542969c0-9.085938 7.363281-16.449219 16.449219-16.449219h464.101562c9.085938 0 16.449219 7.363281 16.449219 16.449219v364.542969c0 9.082031-7.363281 16.449218-16.449219 16.449218zm0 0" fill="#fc9842"></path><path d="m488.050781 7.5h-35.351562c9.085937 0 16.449219 7.363281 16.449219 16.449219v364.542969c0 9.082031-7.363282 16.445312-16.449219 16.445312h35.351562c9.085938 0 16.449219-7.363281 16.449219-16.445312v-364.542969c0-9.085938-7.363281-16.449219-16.449219-16.449219zm0 0" fill="#fb8723"></path><path d="m42.5 42.5h427v327.4375h-427zm0 0" fill="#6dc54a"></path><path d="m434.148438 42.5h35.351562v327.4375h-35.351562zm0 0" fill="#5db33a"></path><path d="m383.394531 369.941406h-118.808593v-32.621094c0-8.007812 6.492187-14.496093 14.5-14.496093h89.8125c8.007812 0 14.496093 6.488281 14.496093 14.496093zm0 0" fill="#5a5a5a"></path><path d="m368.898438 322.820312h-35.855469c8.007812 0 14.496093 6.492188 14.496093 14.5v32.617188h35.855469v-32.617188c0-8.007812-6.492187-14.5-14.496093-14.5zm0 0" fill="#464646"></path><path d="m333.304688 177.585938-26.664063 76.679687-27.515625-27.511719c-2.929688-2.933594-7.679688-2.929687-10.605469 0-2.929687 2.925782-2.929687 7.675782 0 10.605469l35.972657 35.972656c3.910156 3.90625 10.574218 2.382813 12.390624-2.839843l28.839844-82.945313h64.636719c4.144531 0 7.5-3.355469 7.5-7.5 0-4.140625-3.355469-7.5-7.5-7.5h-69.96875c-3.195313 0-6.035156 2.023437-7.085937 5.039063zm0 0"></path><path d="m383.394531 250.554688c4.144531 0 7.5-3.359376 7.5-7.5v-28.519532c0-4.140625-3.355469-7.5-7.5-7.5h-27.070312c-4.144531 0-7.5 3.359375-7.5 7.5 0 4.144532 3.355469 7.5 7.5 7.5h19.570312v13.519532h-19.570312c-4.144531 0-7.5 3.355468-7.5 7.5v27.792968c0 4.140625 3.355469 7.5 7.5 7.5h27.070312c4.144531 0 7.5-3.359375 7.5-7.5 0-4.144531-3.355469-7.5-7.5-7.5h-19.570312v-12.792968zm0 0"></path><path d="m105.976562 119.839844c-4.140624 0-7.5 3.355468-7.5 7.5v27.792968c0 4.140626 3.359376 7.5 7.5 7.5h27.070313c4.144531 0 7.5-3.359374 7.5-7.5 0-4.144531-3.355469-7.5-7.5-7.5h-19.570313v-12.792968h19.570313c4.144531 0 7.5-3.359375 7.5-7.5v-28.515625c0-4.144531-3.355469-7.5-7.5-7.5h-27.070313c-4.140624 0-7.5 3.355469-7.5 7.5 0 4.140625 3.359376 7.5 7.5 7.5h19.570313v13.515625zm0 0"></path><path d="m178.023438 100.878906c-4.140626 0-7.5 3.359375-7.5 7.5v6.226563h-6.226563c-4.140625 0-7.5 3.359375-7.5 7.5s3.359375 7.5 7.5 7.5h6.226563v6.226562c0 4.140625 3.359374 7.5 7.5 7.5 4.144531 0 7.5-3.359375 7.5-7.5v-6.226562h6.230468c4.140625 0 7.5-3.359375 7.5-7.5s-3.359375-7.5-7.5-7.5h-6.230468v-6.226563c0-4.140625-3.355469-7.5-7.5-7.5zm0 0"></path><path d="m226.789062 167.214844c4.144532 0 7.5-3.359375 7.5-7.5v-60.890625c0-4.144531-3.355468-7.5-7.5-7.5h-12.28125c-4.140624 0-7.5 3.355469-7.5 7.5 0 4.140625 3.359376 7.5 7.5 7.5h4.78125v53.390625c0 4.140625 3.359376 7.5 7.5 7.5zm0 0"></path><path d="m152.34375 242.320312-34.898438 20.316407c-3.582031 2.085937-4.792968 6.675781-2.710937 10.253906 1.394531 2.394531 3.90625 3.730469 6.488281 3.730469 1.28125 0 2.582032-.328125 3.769532-1.019532l34.898437-20.316406c3.578125-2.082031 4.792969-6.675781 2.707031-10.253906-2.082031-3.582031-6.675781-4.792969-10.253906-2.710938zm0 0"></path><path d="m166.179688 266.09375-34.898438 20.316406c-3.578125 2.082032-4.792969 6.675782-2.707031 10.253906 1.394531 2.394532 3.90625 3.730469 6.488281 3.730469 1.28125 0 2.578125-.332031 3.765625-1.023437l34.898437-20.3125c3.582032-2.085938 4.792969-6.675782 2.710938-10.253906-2.085938-3.582032-6.675781-4.792969-10.257812-2.710938zm0 0"></path><path d="m385.640625 104.125c2.929687 2.929688 7.679687 2.929688 10.609375 0l4.402344-4.402344 4.402344 4.402344c2.929687 2.929688 7.675781 2.929688 10.605468 0 2.929688-2.929688 2.929688-7.675781 0-10.605469l-4.402344-4.402343 4.402344-4.402344c2.929688-2.929688 2.929688-7.679688 0-10.605469-2.929687-2.929687-7.679687-2.929687-10.605468 0l-4.402344 4.402344-4.402344-4.402344c-2.929688-2.929687-7.679688-2.929687-10.609375 0-2.925781 2.925781-2.925781 7.675781 0 10.605469l4.40625 4.402344-4.40625 4.402343c-2.925781 2.929688-2.925781 7.679688 0 10.605469zm0 0"></path><path d="m42.5 229.160156c-4.144531 0-7.5 3.359375-7.5 7.5v133.28125c0 4.140625 3.355469 7.5 7.5 7.5h427c4.144531 0 7.5-3.359375 7.5-7.5v-327.441406c0-4.140625-3.355469-7.5-7.5-7.5h-427c-4.144531 0-7.5 3.359375-7.5 7.5v168.914062c0 4.144532 3.355469 7.5 7.5 7.5s7.5-3.355468 7.5-7.5v-161.414062h412v312.441406h-71.105469v-25.121094c0-12.128906-9.867187-21.996093-21.996093-21.996093h-43.679688c-4.144531 0-7.5 3.355469-7.5 7.5 0 4.140625 3.355469 7.5 7.5 7.5h43.679688c3.859374 0 6.996093 3.136719 6.996093 6.996093v25.121094h-103.808593v-25.121094c0-3.859374 3.140624-6.996093 7-6.996093h20.886718c4.140625 0 7.5-3.359375 7.5-7.5 0-4.144531-3.359375-7.5-7.5-7.5h-20.886718c-12.132813 0-22 9.867187-22 21.996093v25.121094h-207.085938v-125.78125c0-4.140625-3.355469-7.5-7.5-7.5zm0 0"></path><path d="m488.050781 0h-391.585937c-4.144532 0-7.5 3.359375-7.5 7.5s3.355468 7.5 7.5 7.5h391.585937c4.933594 0 8.949219 4.015625 8.949219 8.949219v364.542969c0 4.933593-4.015625 8.945312-8.949219 8.945312h-464.101562c-4.933594 0-8.949219-4.011719-8.949219-8.945312v-364.542969c0-4.933594 4.015625-8.949219 8.949219-8.949219h47.269531c4.140625 0 7.5-3.355469 7.5-7.5 0-4.140625-3.359375-7.5-7.5-7.5h-47.269531c-13.207031 0-23.949219 10.742188-23.949219 23.949219v364.542969c0 13.203124 10.742188 23.949218 23.949219 23.949218h464.101562c13.207031 0 23.949219-10.746094 23.949219-23.949218v-364.542969c0-13.207031-10.742188-23.949219-23.949219-23.949219zm0 0"></path></svg>